<svg width="21" height="22" viewBox="0 0 21 22" fill="none" xmlns="http://www.w3.org/2000/svg">
<path d="M19.8621 10.3758L10.9444 19.2935C9.85188 20.386 8.37015 20.9998 6.82513 20.9998C5.28011 20.9998 3.79837 20.386 2.70588 19.2935C1.61339 18.201 0.999634 16.7193 0.999634 15.1743C0.999634 13.6293 1.61339 12.1475 2.70588 11.055L11.6236 2.13729C12.352 1.40896 13.3398 0.999786 14.3698 0.999786C15.3998 0.999786 16.3876 1.40896 17.116 2.13729C17.8443 2.86561 18.2535 3.85344 18.2535 4.88345C18.2535 5.91346 17.8443 6.90129 17.116 7.62961L8.18851 16.5474C8.00819 16.7277 7.79413 16.8707 7.55853 16.9683C7.32294 17.0659 7.07043 17.1161 6.81543 17.1161C6.56042 17.1161 6.30791 17.0659 6.07232 16.9683C5.83672 16.8707 5.62266 16.7277 5.44234 16.5474C5.26203 16.3671 5.11899 16.153 5.02141 15.9174C4.92382 15.6818 4.87359 15.4293 4.87359 15.1743C4.87359 14.9193 4.92382 14.6668 5.02141 14.4312C5.11899 14.1956 5.26203 13.9815 5.44234 13.8012L13.6808 5.57242" stroke="black" stroke-width="1.5" stroke-linecap="round" stroke-linejoin="round"/>
</svg>
