<svg width="50" height="50" viewBox="0 0 50 50" fill="none" xmlns="http://www.w3.org/2000/svg">
<path d="M39.5831 8.33333H10.4164C9.67974 8.33333 8.9732 8.62599 8.45226 9.14692C7.93133 9.66785 7.63867 10.3744 7.63867 11.1111V40.2778C7.63867 41.0145 7.93133 41.721 8.45226 42.242C8.9732 42.7629 9.67974 43.0555 10.4164 43.0555H39.5831C40.3198 43.0555 41.0264 42.7629 41.5473 42.242C42.0682 41.721 42.3609 41.0145 42.3609 40.2778V11.1111C42.3609 10.3744 42.0682 9.66785 41.5473 9.14692C41.0264 8.62599 40.3198 8.33333 39.5831 8.33333Z" fill="#61B2E4"/>
<path d="M33.6807 18.6417H36.9363V13.759C34.7655 13.759 26.0849 11.5889 26.0849 20.8118V24.0667H21.7446V29.4924H26.0849V43.75H31.5106V29.4924H36.3932L36.9356 24.0667H31.5106V20.8125C31.5106 18.6424 33.1384 18.6424 33.6807 18.6424V18.6417Z" fill="white"/>
<path d="M31.6796 43.0555H40.1206C40.7148 43.0555 41.2846 42.8195 41.7047 42.3994C42.1249 41.9793 42.3609 41.4094 42.3609 40.8153V10.5736C42.3609 9.97945 42.1249 9.40962 41.7047 8.98949C41.2846 8.56936 40.7148 8.33333 40.1206 8.33333H9.87895C9.28479 8.33333 8.71497 8.56936 8.29483 8.98949C7.8747 9.40962 7.63867 9.97945 7.63867 10.5736V40.8153C7.63867 41.4094 7.8747 41.9793 8.29483 42.3994C8.71497 42.8195 9.28479 43.0555 9.87895 43.0555H26.1817" stroke="black" stroke-width="2" stroke-miterlimit="10"/>
<path d="M31.679 43.0555V29.3111H36.627L37.177 23.8132H31.679V20.5146C31.679 18.3153 33.3283 18.3153 33.8783 18.3153H37.177V13.368C34.9547 13.143 26.1811 11.1694 26.1811 20.5153V23.8139H21.7832V29.3118H26.1811V43.0555" stroke="black" stroke-width="2" stroke-miterlimit="10" stroke-linecap="round" stroke-linejoin="round"/>
</svg>
