<svg width="18" height="18" viewBox="0 0 18 18" fill="none" xmlns="http://www.w3.org/2000/svg">
<path d="M4.5 1.5H11.25C11.6478 1.5 12.0294 1.65804 12.3107 1.93934C12.592 2.22064 12.75 2.60218 12.75 3V3.75C12.75 3.94891 12.671 4.13968 12.5303 4.28033C12.3897 4.42098 12.1989 4.5 12 4.5C11.8011 4.5 11.6103 4.42098 11.4697 4.28033C11.329 4.13968 11.25 3.94891 11.25 3.75V3H4.5V15H11.25V14.25C11.25 14.0511 11.329 13.8603 11.4697 13.7197C11.6103 13.579 11.8011 13.5 12 13.5C12.1989 13.5 12.3897 13.579 12.5303 13.7197C12.671 13.8603 12.75 14.0511 12.75 14.25V15C12.75 15.3978 12.592 15.7794 12.3107 16.0607C12.0294 16.342 11.6478 16.5 11.25 16.5H4.5C4.10218 16.5 3.72064 16.342 3.43934 16.0607C3.15804 15.7794 3 15.3978 3 15V3C3 2.60218 3.15804 2.22064 3.43934 1.93934C3.72064 1.65804 4.10218 1.5 4.5 1.5V1.5Z" fill="white"/>
<path d="M12.5962 12.2213C12.8887 12.5138 13.3612 12.5138 13.6537 12.2213L16.3447 9.53025C16.4854 9.38961 16.5643 9.19888 16.5643 9C16.5643 8.80113 16.4854 8.6104 16.3447 8.46975L13.6537 5.77875C13.5112 5.6499 13.3246 5.58075 13.1324 5.5856C12.9403 5.59045 12.7574 5.66892 12.6216 5.80481C12.4857 5.94069 12.4072 6.12359 12.4023 6.3157C12.3975 6.50781 12.4666 6.69444 12.5955 6.837L14.0025 8.25H7.5C7.30109 8.25 7.11032 8.32902 6.96967 8.46967C6.82902 8.61032 6.75 8.80109 6.75 9C6.75 9.19891 6.82902 9.38968 6.96967 9.53033C7.11032 9.67098 7.30109 9.75 7.5 9.75H14.0025L12.5955 11.163C12.4555 11.3036 12.377 11.4939 12.3771 11.6923C12.3772 11.8907 12.4561 12.0809 12.5962 12.2213Z" fill="white"/>
</svg>
