<svg width="21" height="18" viewBox="0 0 21 18" fill="none" xmlns="http://www.w3.org/2000/svg">
<path d="M19.7556 5.55659L14.6932 0.495216C13.638 -0.559963 11.8125 0.178985 11.8125 1.68842V3.69928C10.3201 3.76538 8.85832 3.92956 7.56703 4.33175C6.33058 4.71671 5.34972 5.30135 4.65222 6.06917C3.80461 7.00292 3.375 8.17713 3.375 9.56018C3.375 11.7292 4.54141 13.5137 6.35871 14.6494C7.67868 15.4758 9.35571 14.2046 8.8555 12.6898C8.31005 11.0333 8.25236 10.1964 11.8125 9.92088V11.8123C11.8125 13.3238 13.6395 14.0592 14.6932 13.0055L19.7556 7.94299C20.4148 7.28417 20.4148 6.21542 19.7556 5.55659ZM13.5 11.8123V8.16167C8.9757 8.22924 5.85323 8.97694 7.25308 13.2185C6.21527 12.5699 5.0625 11.3932 5.0625 9.56018C5.0625 5.71641 9.60257 5.37845 13.5 5.34671V1.68729L18.5625 6.74979L13.5 11.8123ZM14.3698 14.7827C14.6296 14.7085 14.8777 14.5985 15.1071 14.4557C15.3875 14.2816 15.75 14.4847 15.75 14.8148V16.3123C15.75 17.2443 14.9945 17.9998 14.0625 17.9998H1.6875C0.755507 17.9998 0 17.2443 0 16.3123V3.93729C0 3.0053 0.755507 2.24979 1.6875 2.24979H6.32812C6.5611 2.24979 6.75 2.43869 6.75 2.67167V2.82938C6.75 3.00224 6.64498 3.15876 6.4839 3.22144C6.00219 3.40886 5.55592 3.62704 5.1462 3.87482C5.07969 3.91541 5.00334 3.93702 4.92542 3.93729H1.89844C1.84249 3.93729 1.78884 3.95952 1.74928 3.99907C1.70972 4.03863 1.6875 4.09229 1.6875 4.14823V16.1013C1.6875 16.1573 1.70972 16.2109 1.74928 16.2505C1.78884 16.2901 1.84249 16.3123 1.89844 16.3123H13.8516C13.9075 16.3123 13.9612 16.2901 14.0007 16.2505C14.0403 16.2109 14.0625 16.1573 14.0625 16.1013V15.1885C14.0625 14.9997 14.1883 14.8348 14.3698 14.7827Z" fill="black"/>
</svg>
