<svg width="118" height="15" viewBox="0 0 118 15" fill="none" xmlns="http://www.w3.org/2000/svg">
<path d="M5.634 14.216C4.638 14.216 3.672 14.084 2.736 13.82C1.812 13.544 1.068 13.19 0.504 12.758L1.494 10.562C2.034 10.958 2.676 11.276 3.42 11.516C4.164 11.756 4.908 11.876 5.652 11.876C6.48 11.876 7.092 11.756 7.488 11.516C7.884 11.264 8.082 10.934 8.082 10.526C8.082 10.226 7.962 9.98 7.722 9.788C7.494 9.584 7.194 9.422 6.822 9.302C6.462 9.182 5.97 9.05 5.346 8.906C4.386 8.678 3.6 8.45 2.988 8.222C2.376 7.994 1.848 7.628 1.404 7.124C0.972 6.62 0.756 5.948 0.756 5.108C0.756 4.376 0.954 3.716 1.35 3.128C1.746 2.528 2.34 2.054 3.132 1.706C3.936 1.358 4.914 1.184 6.066 1.184C6.87 1.184 7.656 1.28 8.424 1.472C9.192 1.664 9.864 1.94 10.44 2.3L9.54 4.514C8.376 3.854 7.212 3.524 6.048 3.524C5.232 3.524 4.626 3.656 4.23 3.92C3.846 4.184 3.654 4.532 3.654 4.964C3.654 5.396 3.876 5.72 4.32 5.936C4.776 6.14 5.466 6.344 6.39 6.548C7.35 6.776 8.136 7.004 8.748 7.232C9.36 7.46 9.882 7.82 10.314 8.312C10.758 8.804 10.98 9.47 10.98 10.31C10.98 11.03 10.776 11.69 10.368 12.29C9.972 12.878 9.372 13.346 8.568 13.694C7.764 14.042 6.786 14.216 5.634 14.216ZM18.6605 4.172C19.8605 4.172 20.8265 4.532 21.5585 5.252C22.3025 5.972 22.6745 7.04 22.6745 8.456V14H19.8665V8.888C19.8665 8.12 19.6985 7.55 19.3625 7.178C19.0265 6.794 18.5405 6.602 17.9045 6.602C17.1965 6.602 16.6325 6.824 16.2125 7.268C15.7925 7.7 15.5825 8.348 15.5825 9.212V14H12.7745V0.643999H15.5825V5.324C15.9545 4.952 16.4045 4.67 16.9325 4.478C17.4605 4.274 18.0365 4.172 18.6605 4.172ZM29.1258 4.172C30.6258 4.172 31.7778 4.532 32.5818 5.252C33.3858 5.96 33.7878 7.034 33.7878 8.474V14H31.1598V12.794C30.6318 13.694 29.6478 14.144 28.2078 14.144C27.4638 14.144 26.8158 14.018 26.2638 13.766C25.7238 13.514 25.3098 13.166 25.0218 12.722C24.7338 12.278 24.5898 11.774 24.5898 11.21C24.5898 10.31 24.9258 9.602 25.5978 9.086C26.2818 8.57 27.3318 8.312 28.7478 8.312H30.9798C30.9798 7.7 30.7938 7.232 30.4218 6.908C30.0498 6.572 29.4918 6.404 28.7478 6.404C28.2318 6.404 27.7218 6.488 27.2178 6.656C26.7258 6.812 26.3058 7.028 25.9578 7.304L24.9498 5.342C25.4778 4.97 26.1078 4.682 26.8398 4.478C27.5838 4.274 28.3458 4.172 29.1258 4.172ZM28.9098 12.254C29.3898 12.254 29.8158 12.146 30.1878 11.93C30.5598 11.702 30.8238 11.372 30.9798 10.94V9.95H29.0538C27.9018 9.95 27.3258 10.328 27.3258 11.084C27.3258 11.444 27.4638 11.732 27.7398 11.948C28.0278 12.152 28.4178 12.254 28.9098 12.254ZM42.2152 4.172C43.4152 4.172 44.3812 4.532 45.1132 5.252C45.8572 5.972 46.2292 7.04 46.2292 8.456V14H43.4212V8.888C43.4212 8.12 43.2532 7.55 42.9172 7.178C42.5812 6.794 42.0952 6.602 41.4592 6.602C40.7512 6.602 40.1872 6.824 39.7672 7.268C39.3472 7.7 39.1372 8.348 39.1372 9.212V14H36.3292V0.643999H39.1372V5.324C39.5092 4.952 39.9592 4.67 40.4872 4.478C41.0152 4.274 41.5912 4.172 42.2152 4.172ZM58.366 9.194C58.366 9.23 58.348 9.482 58.312 9.95H50.986C51.118 10.55 51.43 11.024 51.922 11.372C52.414 11.72 53.026 11.894 53.758 11.894C54.262 11.894 54.706 11.822 55.09 11.678C55.486 11.522 55.852 11.282 56.188 10.958L57.682 12.578C56.77 13.622 55.438 14.144 53.686 14.144C52.594 14.144 51.628 13.934 50.788 13.514C49.948 13.082 49.3 12.488 48.844 11.732C48.388 10.976 48.16 10.118 48.16 9.158C48.16 8.21 48.382 7.358 48.826 6.602C49.282 5.834 49.9 5.24 50.68 4.82C51.472 4.388 52.354 4.172 53.326 4.172C54.274 4.172 55.132 4.376 55.9 4.784C56.668 5.192 57.268 5.78 57.7 6.548C58.144 7.304 58.366 8.186 58.366 9.194ZM53.344 6.296C52.708 6.296 52.174 6.476 51.742 6.836C51.31 7.196 51.046 7.688 50.95 8.312H55.72C55.624 7.7 55.36 7.214 54.928 6.854C54.496 6.482 53.968 6.296 53.344 6.296ZM69.7215 9.194C69.7215 9.23 69.7035 9.482 69.6675 9.95H62.3415C62.4735 10.55 62.7855 11.024 63.2775 11.372C63.7695 11.72 64.3815 11.894 65.1135 11.894C65.6175 11.894 66.0615 11.822 66.4455 11.678C66.8415 11.522 67.2075 11.282 67.5435 10.958L69.0375 12.578C68.1255 13.622 66.7935 14.144 65.0415 14.144C63.9495 14.144 62.9835 13.934 62.1435 13.514C61.3035 13.082 60.6555 12.488 60.1995 11.732C59.7435 10.976 59.5155 10.118 59.5155 9.158C59.5155 8.21 59.7375 7.358 60.1815 6.602C60.6375 5.834 61.2555 5.24 62.0355 4.82C62.8275 4.388 63.7095 4.172 64.6815 4.172C65.6295 4.172 66.4875 4.376 67.2555 4.784C68.0235 5.192 68.6235 5.78 69.0555 6.548C69.4995 7.304 69.7215 8.186 69.7215 9.194ZM64.6995 6.296C64.0635 6.296 63.5295 6.476 63.0975 6.836C62.6655 7.196 62.4015 7.688 62.3055 8.312H67.0755C66.9795 7.7 66.7155 7.214 66.2835 6.854C65.8515 6.482 65.3235 6.296 64.6995 6.296ZM83.9929 4.172C85.2049 4.172 86.1649 4.532 86.8729 5.252C87.5929 5.96 87.9529 7.028 87.9529 8.456V14H85.1449V8.888C85.1449 8.12 84.9829 7.55 84.6589 7.178C84.3469 6.794 83.8969 6.602 83.3089 6.602C82.6489 6.602 82.1269 6.818 81.7429 7.25C81.3589 7.67 81.1669 8.3 81.1669 9.14V14H78.3589V8.888C78.3589 7.364 77.7469 6.602 76.5229 6.602C75.8749 6.602 75.3589 6.818 74.9749 7.25C74.5909 7.67 74.3989 8.3 74.3989 9.14V14H71.5909V4.316H74.2729V5.432C74.6329 5.024 75.0709 4.712 75.5869 4.496C76.1149 4.28 76.6909 4.172 77.3149 4.172C77.9989 4.172 78.6169 4.31 79.1689 4.586C79.7209 4.85 80.1649 5.24 80.5009 5.756C80.8969 5.252 81.3949 4.862 81.9949 4.586C82.6069 4.31 83.2729 4.172 83.9929 4.172Z" fill="#2F2F2F"/>
<path d="M96.6978 14.216C95.4138 14.216 94.2498 13.94 93.2058 13.388C92.1738 12.824 91.3578 12.05 90.7578 11.066C90.1698 10.07 89.8758 8.948 89.8758 7.7C89.8758 6.452 90.1698 5.336 90.7578 4.352C91.3578 3.356 92.1738 2.582 93.2058 2.03C94.2498 1.466 95.4198 1.184 96.7158 1.184C97.8078 1.184 98.7918 1.376 99.6678 1.76C100.556 2.144 101.3 2.696 101.9 3.416L100.028 5.144C99.1758 4.16 98.1198 3.668 96.8598 3.668C96.0798 3.668 95.3838 3.842 94.7718 4.19C94.1598 4.526 93.6798 5 93.3318 5.612C92.9958 6.224 92.8278 6.92 92.8278 7.7C92.8278 8.48 92.9958 9.176 93.3318 9.788C93.6798 10.4 94.1598 10.88 94.7718 11.228C95.3838 11.564 96.0798 11.732 96.8598 11.732C98.1198 11.732 99.1758 11.234 100.028 10.238L101.9 11.966C101.3 12.698 100.556 13.256 99.6678 13.64C98.7798 14.024 97.7898 14.216 96.6978 14.216ZM107.945 14.144C106.925 14.144 106.007 13.934 105.191 13.514C104.387 13.082 103.757 12.488 103.301 11.732C102.845 10.976 102.617 10.118 102.617 9.158C102.617 8.198 102.845 7.34 103.301 6.584C103.757 5.828 104.387 5.24 105.191 4.82C106.007 4.388 106.925 4.172 107.945 4.172C108.965 4.172 109.877 4.388 110.681 4.82C111.485 5.24 112.115 5.828 112.571 6.584C113.027 7.34 113.255 8.198 113.255 9.158C113.255 10.118 113.027 10.976 112.571 11.732C112.115 12.488 111.485 13.082 110.681 13.514C109.877 13.934 108.965 14.144 107.945 14.144ZM107.945 11.84C108.665 11.84 109.253 11.6 109.709 11.12C110.177 10.628 110.411 9.974 110.411 9.158C110.411 8.342 110.177 7.694 109.709 7.214C109.253 6.722 108.665 6.476 107.945 6.476C107.225 6.476 106.631 6.722 106.163 7.214C105.695 7.694 105.461 8.342 105.461 9.158C105.461 9.974 105.695 10.628 106.163 11.12C106.631 11.6 107.225 11.84 107.945 11.84ZM116.071 14.144C115.579 14.144 115.165 13.976 114.829 13.64C114.493 13.304 114.325 12.884 114.325 12.38C114.325 11.864 114.493 11.45 114.829 11.138C115.165 10.814 115.579 10.652 116.071 10.652C116.563 10.652 116.977 10.814 117.313 11.138C117.649 11.45 117.817 11.864 117.817 12.38C117.817 12.884 117.649 13.304 117.313 13.64C116.977 13.976 116.563 14.144 116.071 14.144Z" fill="#AC1500"/>
</svg>
