<svg width="40" height="40" viewBox="0 0 40 40" fill="none" xmlns="http://www.w3.org/2000/svg">
<path d="M28.8434 40C12.9395 40 0 27.0605 0 11.1566C0.00601375 8.42865 1.00245 5.79566 2.80406 3.74721C4.60567 1.69876 7.08985 0.374231 9.79473 0.0198894C10.4843 -0.0565636 11.1802 0.0886106 11.7817 0.434359C12.3831 0.780108 12.8588 1.30845 13.1398 1.94278L17.1658 11.3369C17.3746 11.8245 17.4584 12.3566 17.4094 12.8848C17.3604 13.413 17.1803 13.9205 16.8854 14.3615L13.5604 19.4491C15.066 22.5047 17.5469 24.9714 20.611 26.4596L25.6385 23.1146C26.079 22.8177 26.5879 22.638 27.1171 22.5924C27.6463 22.5469 28.1784 22.637 28.6631 22.8542L38.0572 26.8602C38.6915 27.1412 39.2199 27.6169 39.5656 28.2183C39.9114 28.8198 40.0566 29.5157 39.9801 30.2053C39.6258 32.9102 38.3012 35.3943 36.2528 37.1959C34.2043 38.9975 31.5714 39.994 28.8434 40ZM10.1953 3.20468C8.26232 3.45316 6.48616 4.3977 5.19941 5.86143C3.91265 7.32516 3.20353 9.20772 3.20482 11.1566C3.21012 17.9548 5.91302 24.473 10.72 29.28C15.527 34.087 22.0452 36.7899 28.8434 36.7952C30.7923 36.7965 32.6748 36.0873 34.1386 34.8006C35.6023 33.5138 36.5468 31.7377 36.7953 29.8047L27.4012 25.7986L22.3937 29.1437C21.9329 29.4483 21.4013 29.6286 20.8503 29.6672C20.2993 29.7058 19.7477 29.6014 19.2489 29.364C15.5172 27.5589 12.4987 24.5544 10.6761 20.8312C10.4357 20.3341 10.3279 19.7835 10.363 19.2325C10.3981 18.6815 10.5749 18.149 10.8764 17.6864L14.2214 12.5988L10.1953 3.20468Z" fill="black"/>
</svg>
