<svg width="50" height="50" viewBox="0 0 50 50" fill="none" xmlns="http://www.w3.org/2000/svg">
<path d="M40.2776 7.63889H9.72201C8.57141 7.63889 7.63867 8.57163 7.63867 9.72222V40.2778C7.63867 41.4284 8.57141 42.3611 9.72201 42.3611H40.2776C41.4282 42.3611 42.3609 41.4284 42.3609 40.2778V9.72222C42.3609 8.57163 41.4282 7.63889 40.2776 7.63889Z" fill="#61B2E4"/>
<path d="M13.8887 20.8333H18.0553V35.4167H13.8887V20.8333Z" fill="white"/>
<path d="M15.9721 17.7083C17.3144 17.7083 18.4026 16.6201 18.4026 15.2778C18.4026 13.9354 17.3144 12.8472 15.9721 12.8472C14.6297 12.8472 13.5415 13.9354 13.5415 15.2778C13.5415 16.6201 14.6297 17.7083 15.9721 17.7083Z" fill="white"/>
<path d="M29.5138 24.3056C27.9798 24.3056 26.736 25.1167 26.736 27.4306V35.4167H22.5693V20.8333H26.736V22.3681H26.7346C27.2555 21.7759 27.8967 21.3017 28.6155 20.9771C29.3343 20.6526 30.114 20.4852 30.9027 20.4861C33.9707 20.4861 36.4582 22.7778 36.4582 26.7361V35.4167H32.2916V27.4306C32.2916 25.1167 31.0485 24.3056 29.5138 24.3056Z" fill="white"/>
<path d="M40.2776 7.63889H9.72201C8.57141 7.63889 7.63867 8.57163 7.63867 9.72222V40.2778C7.63867 41.4284 8.57141 42.3611 9.72201 42.3611H40.2776C41.4282 42.3611 42.3609 41.4284 42.3609 40.2778V9.72222C42.3609 8.57163 41.4282 7.63889 40.2776 7.63889Z" stroke="black" stroke-width="2" stroke-miterlimit="10"/>
<path d="M13.8887 20.8333H18.0553V35.4167H13.8887V20.8333Z" stroke="black" stroke-width="2" stroke-linecap="round" stroke-linejoin="round"/>
<path d="M15.9721 17.7083C17.3144 17.7083 18.4026 16.6201 18.4026 15.2778C18.4026 13.9354 17.3144 12.8472 15.9721 12.8472C14.6297 12.8472 13.5415 13.9354 13.5415 15.2778C13.5415 16.6201 14.6297 17.7083 15.9721 17.7083Z" stroke="black" stroke-width="2" stroke-linecap="round" stroke-linejoin="round"/>
<path d="M29.5138 24.3056C27.9798 24.3056 26.736 25.1167 26.736 27.4306V35.4167H22.5693V20.8333H26.736V22.3681H26.7346C27.2555 21.7759 27.8967 21.3017 28.6155 20.9771C29.3343 20.6526 30.114 20.4852 30.9027 20.4861C33.9707 20.4861 36.4582 22.7778 36.4582 26.7361V35.4167H32.2916V27.4306C32.2916 25.1167 31.0485 24.3056 29.5138 24.3056Z" stroke="black" stroke-width="2" stroke-linecap="round" stroke-linejoin="round"/>
</svg>
