<svg width="40" height="31" viewBox="0 0 40 31" fill="none" xmlns="http://www.w3.org/2000/svg">
<g clip-path="url(#clip0_40_36)">
<path d="M9.09094 30.0078V14.5531L4.29797 10.1683L0 7.735V27.2805C0 28.7895 1.22266 30.0078 2.72734 30.0078H9.09094Z" fill="#4285F4"/>
<path d="M30.9092 30.0078H37.2728C38.782 30.0078 40.0001 28.785 40.0001 27.2805V7.73515L35.132 10.5222L30.9092 14.5531V30.0078Z" fill="#34A853"/>
<path d="M9.09115 14.5531L8.43896 8.51453L9.09115 2.735L20.0002 10.9169L30.9093 2.735L31.6388 8.2025L30.9093 14.5531L20.0002 22.735L9.09115 14.5531Z" fill="#EA4335"/>
<path d="M30.9092 2.735V14.5531L40.0001 7.735V4.09859C40.0001 0.725935 36.1501 -1.19672 33.4548 0.825935L30.9092 2.735Z" fill="#FBBC04"/>
<path d="M0 7.73499L4.18109 10.8709L9.09094 14.5531V2.73499L6.54531 0.82593C3.84531 -1.19688 0 0.72593 0 4.09843V7.73484V7.73499Z" fill="#C5221F"/>
</g>
<defs>
<clipPath id="clip0_40_36">
<rect width="40" height="30.1562" fill="white"/>
</clipPath>
</defs>
</svg>
