<svg width="22" height="20" viewBox="0 0 22 20" fill="none" xmlns="http://www.w3.org/2000/svg">
<path d="M12.6951 16.5935C16.3703 16.5935 18.2084 16.5935 19.3496 15.4512C20.4918 14.31 20.4918 12.4719 20.4918 8.79673C20.4918 5.12155 20.4918 3.28347 19.3496 2.14222C18.2084 1 16.3703 1 12.6951 1H8.79673C5.12155 1 3.28347 1 2.14222 2.14222C1 3.28347 1 5.12155 1 8.79673C1 12.4719 1 14.31 2.14222 15.4512C2.77863 16.0886 3.6314 16.3703 4.89837 16.4941" stroke="black" stroke-width="2" stroke-linecap="round" stroke-linejoin="round"/>
<path d="M12.6951 16.5935C11.4905 16.5935 10.1631 17.0808 8.9517 17.7094C7.00446 18.72 6.03085 19.2259 5.55135 18.9033C5.07185 18.5816 5.16248 17.5827 5.34473 15.5858L5.38567 15.1316" stroke="black" stroke-width="2" stroke-linecap="round"/>
</svg>
